<?xml version="1.0" standalone="no"?>
<!DOCTYPE svg PUBLIC "-//W3C//DTD SVG 20010904//EN"
 "http://www.w3.org/TR/2001/REC-SVG-20010904/DTD/svg10.dtd">
<svg version="1.0" xmlns="http://www.w3.org/2000/svg"
 width="700.000000pt" height="540.000000pt" viewBox="0 0 700.000000 540.000000"
 preserveAspectRatio="xMidYMid meet">

<g transform="translate(0.000000,540.000000) scale(0.100000,-0.100000)"
fill="#fff" stroke="none">
<path d="M2620 2881 l0 -2517 559 -177 c307 -97 564 -177 570 -177 8 0 11 575
11 2149 0 2111 0 2150 20 2213 23 74 64 123 120 139 81 24 206 -44 254 -140
52 -101 50 -66 56 -1056 l5 -929 83 -34 c160 -65 261 -85 417 -85 125 -1 149
2 220 26 425 140 612 638 519 1377 -74 584 -354 920 -994 1193 -332 141 -1220
404 -1722 510 l-118 25 0 -2517z"/>
<path d="M1550 2055 c-895 -319 -1012 -363 -1163 -437 -268 -131 -377 -240
-377 -378 0 -155 156 -303 416 -396 607 -218 1261 -277 1894 -172 l75 13 3
293 c2 208 -1 292 -9 292 -6 0 -147 -49 -314 -110 -385 -138 -415 -145 -665
-145 -176 0 -201 3 -254 23 -140 52 -143 129 -9 199 32 17 327 126 656 244
l597 213 0 328 c0 256 -3 328 -12 327 -7 0 -384 -133 -838 -294z"/>
<path d="M5010 2060 c-304 -24 -773 -118 -985 -197 l-50 -19 -3 -337 c-2 -278
0 -337 11 -337 8 0 295 99 638 220 366 129 665 229 724 242 77 16 137 22 260
22 200 1 288 -18 353 -77 48 -44 11 -107 -91 -156 -49 -24 -651 -240 -1869
-673 l-28 -10 0 -323 c0 -178 3 -326 8 -328 13 -7 2524 902 2622 949 192 92
329 204 371 302 36 84 19 181 -47 267 -137 180 -696 376 -1254 440 -163 18
-516 27 -660 15z"/>
</g>
</svg>
