<?xml version="1.0" encoding="UTF-8" standalone="no"?>
<svg
   xmlns:dc="http://purl.org/dc/elements/1.1/"
   xmlns:cc="http://creativecommons.org/ns#"
   xmlns:rdf="http://www.w3.org/1999/02/22-rdf-syntax-ns#"
   xmlns:svg="http://www.w3.org/2000/svg"
   xmlns="http://www.w3.org/2000/svg"
   viewBox="0 0 386.57333 383.66666"
   height="383.66666"
   width="386.57333"
   xml:space="preserve"
   id="svg2"
   version="1.1"><metadata
     id="metadata8"><rdf:RDF><cc:Work
         rdf:about=""><dc:format>image/svg+xml</dc:format><dc:type
           rdf:resource="http://purl.org/dc/dcmitype/StillImage" /></cc:Work></rdf:RDF></metadata><defs
     id="defs6"><clipPath
       id="clipPath20"
       clipPathUnits="userSpaceOnUse"><path
         id="path18"
         d="m 2853.1,1237.8 c -2.6,-1.2 -5.31,-2.25 -8.09,-3.14 -2.77,-0.9 -5.64,-1.63 -8.58,-2.23 -2.96,-0.59 -5.99,-1.03 -9.11,-1.31 l -628.92,-54.26 -397.25,-260.321 605.72,58.731 c 3,0.308 5.94,0.742 8.79,1.339 2.85,0.602 5.62,1.352 8.32,2.25 2.69,0.871 5.31,1.903 7.81,3.071 2.53,1.16 4.96,2.461 7.3,3.879 140.51,85.311 281,170.641 421.51,255.961 -2.42,-1.45 -4.92,-2.78 -7.5,-3.97 z" /></clipPath><linearGradient
       id="linearGradient28"
       spreadMethod="pad"
       gradientTransform="matrix(830.987,-302.454,-302.454,-830.987,1915.38,1230.38)"
       gradientUnits="userSpaceOnUse"
       y2="0"
       x2="1"
       y1="0"
       x1="0"><stop
         id="stop22"
         offset="0"
         style="stop-opacity:1;stop-color:#c99517" /><stop
         id="stop24"
         offset="0.472727"
         style="stop-opacity:1;stop-color:#ba621c" /><stop
         id="stop26"
         offset="1"
         style="stop-opacity:1;stop-color:#ba621c" /></linearGradient><clipPath
       id="clipPath38"
       clipPathUnits="userSpaceOnUse"><path
         id="path36"
         d="m 960.797,2762.68 c -1.926,8.54 -2.844,16.86 -2.867,24.86 -0.024,7.99 0.875,15.66 2.617,22.91 1.719,7.24 4.293,14.05 7.617,20.34 3.305,6.28 7.395,12.05 12.145,17.17 -109.094,-117.88 -218.18,-235.75 -327.246,-353.62 -4.614,-4.98 -8.559,-10.54 -11.817,-16.6 -3.238,-6.06 -5.762,-12.6 -7.512,-19.54 -1.742,-6.95 -2.679,-14.29 -2.754,-21.92 -0.066,-7.64 0.739,-15.57 2.485,-23.7 l 145.211,-676.67 341.984,315 z" /></clipPath><linearGradient
       id="linearGradient46"
       spreadMethod="pad"
       gradientTransform="matrix(561.297,-204.296,-204.296,-561.297,608.611,2390.53)"
       gradientUnits="userSpaceOnUse"
       y2="0"
       x2="1"
       y1="0"
       x1="0"><stop
         id="stop40"
         offset="0"
         style="stop-opacity:1;stop-color:#c99517" /><stop
         id="stop42"
         offset="0.472727"
         style="stop-opacity:1;stop-color:#ba621c" /><stop
         id="stop44"
         offset="1"
         style="stop-opacity:1;stop-color:#ba621c" /></linearGradient><clipPath
       id="clipPath56"
       clipPathUnits="userSpaceOnUse"><path
         id="path54"
         d="m 2327.04,308.859 c -2.34,-0.968 -4.72,-1.839 -7.19,-2.621 -2.45,-0.758 -4.98,-1.429 -7.53,-2 -2.56,-0.547 -5.18,-1.008 -7.87,-1.347 l -655.56,-84.563 c -15.59,-2.008 -31.24,-0.406 -46.2,4.254 -14.99,4.637 -29.29,12.316 -42.14,22.418 -12.84,10.129 -24.21,22.68 -33.37,37.051 -9.14,14.371 -16.07,30.57 -19.97,47.969 l -173.44,772.23 -362,-266.109 156.81,-730.68 c 3.53,-16.461 9.93,-31.7227 18.52,-45.2696 8.56,-13.5117 19.28,-25.3125 31.44,-34.7617 12.14,-9.4805 25.73,-16.62111 39.98,-20.89064 14.25,-4.269529 29.2,-5.64062 44.12,-3.628904 L 1891.42,86.8789 c 2.54,0.3633 5.08,0.8125 7.54,1.3594 2.47,0.5625 4.88,1.2226 7.26,1.9531 2.37,0.7578 4.66,1.6094 6.94,2.5469 2.24,0.9414 4.45,1.9805 6.58,3.1015 138.05,72.0702 276.09,144.1402 414.14,216.1992 -2.23,-1.141 -4.49,-2.23 -6.84,-3.18 z" /></clipPath><linearGradient
       id="linearGradient64"
       spreadMethod="pad"
       gradientTransform="matrix(1371.22,-499.082,-499.082,-1371.22,916.467,684.2)"
       gradientUnits="userSpaceOnUse"
       y2="0"
       x2="1"
       y1="0"
       x1="0"><stop
         id="stop58"
         offset="0"
         style="stop-opacity:1;stop-color:#c99517" /><stop
         id="stop60"
         offset="0.472727"
         style="stop-opacity:1;stop-color:#ba621c" /><stop
         id="stop62"
         offset="1"
         style="stop-opacity:1;stop-color:#ba621c" /></linearGradient><clipPath
       id="clipPath74"
       clipPathUnits="userSpaceOnUse"><path
         id="path72"
         d="M 0,0 H 2899 V 2877 H 0 Z" /></clipPath><clipPath
       id="clipPath80"
       clipPathUnits="userSpaceOnUse"><path
         id="path78"
         d="m 606.504,1039.49 c -16.602,-1.41 -33.172,0.71 -48.918,5.86 -15.77,5.12 -30.688,13.24 -43.977,23.71 -13.3,10.46 -24.945,23.29 -34.175,37.84 -9.204,14.53 -15.969,30.8 -19.52,48.18 l -150.945,739.9 c -1.922,9.43 -2.727,18.66 -2.5,27.55 0.222,8.9 1.472,17.45 3.652,25.56 2.18,8.1 5.289,15.75 9.234,22.84 3.95,7.06 8.735,13.56 14.27,19.37 -102.344,-107.46 -204.684,-214.9 -307.0352,-322.34 -5.3281,-5.6 -9.9531,-11.83 -13.7734,-18.6 -3.83202,-6.78 -6.87499,-14.08 -9.03124,-21.82 -2.14453,-7.73 -3.417972,-15.88 -3.7148475,-24.32 -0.3046875,-8.47 0.3828125,-17.21 2.1328175,-26.17 L 138.773,876.73 c 3.204,-16.421 9.493,-31.75 18.122,-45.429 8.628,-13.699 19.589,-25.719 32.144,-35.5 12.543,-9.789 26.672,-17.289 41.621,-21.992 14.942,-4.68 30.711,-6.559 46.539,-5.028 l 694.571,67.36 362,266.109 z" /></clipPath><linearGradient
       id="linearGradient88"
       spreadMethod="pad"
       gradientTransform="matrix(1343.51,-488.996,-488.996,-1343.51,-42.8498,1500.27)"
       gradientUnits="userSpaceOnUse"
       y2="0"
       x2="1"
       y1="0"
       x1="0"><stop
         id="stop82"
         offset="0"
         style="stop-opacity:1;stop-color:#c99517" /><stop
         id="stop84"
         offset="0.472727"
         style="stop-opacity:1;stop-color:#ba621c" /><stop
         id="stop86"
         offset="1"
         style="stop-opacity:1;stop-color:#ba621c" /></linearGradient><clipPath
       id="clipPath98"
       clipPathUnits="userSpaceOnUse"><path
         id="path96"
         d="M 0,0 H 2899 V 2877 H 0 Z" /></clipPath><clipPath
       id="clipPath104"
       clipPathUnits="userSpaceOnUse"><path
         id="path102"
         d="m 2898.91,1328.59 v 0.07 l -0.02,0.1 c -0.63,7.34 -1.94,14.89 -3.96,22.56 l -173.38,658.07 c -1.97,7.44 -4.55,14.68 -7.67,21.63 l -0.01,0.05 -0.04,0.06 c -3.12,6.94 -6.77,13.6 -10.89,19.92 -8.24,12.68 -18.31,23.97 -29.56,33.33 -5.57,4.63 -11.43,8.78 -17.49,12.41 l -0.16,0.12 -0.15,0.07 c -6.08,3.61 -12.37,6.69 -18.78,9.15 -6.48,2.48 -13.09,4.34 -19.74,5.51 v 0 0 c -6.65,1.17 -13.34,1.64 -19.99,1.37 l -622.27,-26.18 -168.03,683.82 c -3.64,14.87 -9.96,28.99 -18.26,41.8 -4.15,6.39 -8.79,12.47 -13.85,18.14 l -0.02,0.04 -0.03,0.03 c -5.05,5.67 -10.51,10.95 -16.29,15.75 -11.59,9.67 -24.51,17.45 -38.03,22.82 -6.77,2.67 -13.69,4.75 -20.68,6.15 l -0.05,0.01 h -0.03 c -7,1.4 -14.07,2.11 -21.12,2.09 l -633.45,-2.77 c -7.47,-0.03 -14.61,-0.83 -21.33,-2.33 l -0.08,-0.01 -0.06,-0.01 c -6.74,-1.51 -13.07,-3.72 -18.94,-6.54 -11.8,-5.68 -21.741,-13.86 -29.382,-23.98 -7.645,-10.13 -12.969,-22.19 -15.52,-35.57 -1.285,-6.7 -1.871,-13.73 -1.695,-21.02 v 0 0 c 0.172,-7.29 1.102,-14.84 2.844,-22.57 l 159.863,-711.77 -717.219,-30.16 c -16.367,-0.69 -31.281,-4.7 -44.25,-11.37 -6.472,-3.33 -12.453,-7.31 -17.89,-11.88 l -0.078,-0.05 -0.059,-0.07 c -5.441,-4.58 -10.32,-9.72 -14.586,-15.38 -8.586,-11.37 -14.691,-24.75 -17.797,-39.48 -1.554,-7.36 -2.371,-15.05 -2.343,-22.98 l -0.012,-0.04 v -0.02 c 0.012,-7.95 0.836,-16.14 2.543,-24.5 l 150.945,-739.9 c 1.766,-8.65 4.34,-17 7.598,-25.04 l 0.035,-0.12 0.055,-0.09 c 3.281,-8.03 7.253,-15.7 11.832,-22.93 4.601,-7.27 9.816,-14.09 15.527,-20.43 l 0.035,-0.04 0.059,-0.04 c 5.703,-6.31 11.922,-12.12 18.554,-17.33 13.289,-10.47 28.207,-18.59 43.977,-23.71 15.746,-5.15 32.316,-7.27 48.918,-5.86 l 727.266,62.76 173.44,-772.23 c 1.92,-8.61 4.61,-16.918 7.93,-24.86 l 0.07,-0.281 0.14,-0.25 c 3.34,-7.918 7.31,-15.469 11.83,-22.578 4.56,-7.172 9.69,-13.891 15.27,-20.063 l 0.03,-0.078 0.06,-0.039 c 5.58,-6.172 11.61,-11.82 18.01,-16.871 6.37,-5 13.11,-9.43 20.11,-13.168 l 0.15,-0.094 0.16,-0.066 c 7.01,-3.742 14.26,-6.801 21.72,-9.09 7.47,-2.32 15.1,-3.883 22.81,-4.613 l 0.07,-0.028 h 0.09 c 7.7,-0.699 15.47,-0.621 23.23,0.387 l 655.56,84.563 c 7.29,0.941 14.18,2.699 20.64,5.191 l 0.1,0.008 0.09,0.07 c 6.44,2.5 12.45,5.719 17.96,9.57 5.52,3.86 10.55,8.36 15.06,13.379 l 0.12,0.121 0.11,0.168 c 4.48,5.024 8.43,10.59 11.82,16.614 6.82,12.168 11.29,26.187 13.06,41.32 1.75,15.09 0.78,31.34 -3.3,47.977 l -181.71,739.551 628.92,54.26 c 13.44,1.17 25.43,5.41 35.57,12.12 10.13,6.68 18.43,15.79 24.54,26.67 3.03,5.41 5.52,11.27 7.42,17.48 l 0.03,0.1 0.03,0.09 c 1.9,6.22 3.21,12.78 3.88,19.65 0.68,6.86 0.73,14.02 0.12,21.36 z" /></clipPath><linearGradient
       id="linearGradient114"
       spreadMethod="pad"
       gradientTransform="matrix(1287.75,1839.1,1839.1,-1287.75,986.024,647.02)"
       gradientUnits="userSpaceOnUse"
       y2="0"
       x2="1"
       y1="0"
       x1="0"><stop
         id="stop106"
         offset="0"
         style="stop-opacity:1;stop-color:#f5f7b4" /><stop
         id="stop108"
         offset="0.163636"
         style="stop-opacity:1;stop-color:#f5f7b4" /><stop
         id="stop110"
         offset="0.484848"
         style="stop-opacity:1;stop-color:#f4c716" /><stop
         id="stop112"
         offset="1"
         style="stop-opacity:1;stop-color:#f4c716" /></linearGradient></defs><g
     transform="matrix(1.3333333,0,0,-1.3333333,0,383.66667)"
     id="g10"><g
       transform="scale(0.1)"
       id="g12"><g
         id="g14"><g
           clip-path="url(#clipPath20)"
           id="g16"><path
             id="path30"
             style="fill:url(#linearGradient28);fill-opacity:1;fill-rule:nonzero;stroke:none"
             d="m 2853.1,1237.8 c -2.6,-1.2 -5.31,-2.25 -8.09,-3.14 -2.77,-0.9 -5.64,-1.63 -8.58,-2.23 -2.96,-0.59 -5.99,-1.03 -9.11,-1.31 l -628.92,-54.26 -397.25,-260.321 605.72,58.731 c 3,0.308 5.94,0.742 8.79,1.339 2.85,0.602 5.62,1.352 8.32,2.25 2.69,0.871 5.31,1.903 7.81,3.071 2.53,1.16 4.96,2.461 7.3,3.879 140.51,85.311 281,170.641 421.51,255.961 -2.42,-1.45 -4.92,-2.78 -7.5,-3.97" /></g></g><g
         id="g32"><g
           clip-path="url(#clipPath38)"
           id="g34"><path
             id="path48"
             style="fill:url(#linearGradient46);fill-opacity:1;fill-rule:nonzero;stroke:none"
             d="m 960.797,2762.68 c -1.926,8.54 -2.844,16.86 -2.867,24.86 -0.024,7.99 0.875,15.66 2.617,22.91 1.719,7.24 4.293,14.05 7.617,20.34 3.305,6.28 7.395,12.05 12.145,17.17 -109.094,-117.88 -218.18,-235.75 -327.246,-353.62 -4.614,-4.98 -8.559,-10.54 -11.817,-16.6 -3.238,-6.06 -5.762,-12.6 -7.512,-19.54 -1.742,-6.95 -2.679,-14.29 -2.754,-21.92 -0.066,-7.64 0.739,-15.57 2.485,-23.7 l 145.211,-676.67 341.984,315 -159.863,711.77" /></g></g><g
         id="g50"><g
           clip-path="url(#clipPath56)"
           id="g52"><path
             id="path66"
             style="fill:url(#linearGradient64);fill-opacity:1;fill-rule:nonzero;stroke:none"
             d="m 2327.04,308.859 c -2.34,-0.968 -4.72,-1.839 -7.19,-2.621 -2.45,-0.758 -4.98,-1.429 -7.53,-2 -2.56,-0.547 -5.18,-1.008 -7.87,-1.347 l -655.56,-84.563 c -15.59,-2.008 -31.24,-0.406 -46.2,4.254 -14.99,4.637 -29.29,12.316 -42.14,22.418 -12.84,10.129 -24.21,22.68 -33.37,37.051 -9.14,14.371 -16.07,30.57 -19.97,47.969 l -173.44,772.23 -362,-266.109 156.81,-730.68 c 3.53,-16.461 9.93,-31.7227 18.52,-45.2696 8.56,-13.5117 19.28,-25.3125 31.44,-34.7617 12.14,-9.4805 25.73,-16.62111 39.98,-20.89064 14.25,-4.269529 29.2,-5.64062 44.12,-3.628904 L 1891.42,86.8789 c 2.54,0.3633 5.08,0.8125 7.54,1.3594 2.47,0.5625 4.88,1.2226 7.26,1.9531 2.37,0.7578 4.66,1.6094 6.94,2.5469 2.24,0.9414 4.45,1.9805 6.58,3.1015 138.05,72.0702 276.09,144.1402 414.14,216.1992 -2.23,-1.141 -4.49,-2.23 -6.84,-3.18" /></g></g><g
         id="g68"><g
           clip-path="url(#clipPath74)"
           id="g70"><g
             clip-path="url(#clipPath80)"
             id="g76"><path
               id="path90"
               style="fill:url(#linearGradient88);fill-opacity:1;fill-rule:nonzero;stroke:none"
               d="m 253,768 v 1 h -5 v 1 h -6 v 1 h -5 v 1 h -4 v 1 h -3 v 1 h -4 v 1 h -2 v 1 h -2 v 1 h -2 v 1 h -3 v 1 h -2 v 1 h -2 v 1 h -3 v 1 h -2 v 1 h -1 v 1 h -2 v 1 h -2 v 1 h -1 v 1 h -2 v 1 h -1 v 1 h -2 v 1 h -2 v 1 h -1 v 1 h -2 v 1 h -1 v 1 h -1 v 1 h -2 v 1 h -1 v 1 h -1 v 1 h -1 v 1 h -1 v 1 h -1 v 1 h -2 v 1 h -1 v 1 h -1 v 1 h -1 v 1 h -1 v 1 h -1 v 1 h -1 v 1 h -1 v 1 h -1 v 1 h -1 v 1 h -1 v 1 h -1 v 1 h -1 v 2 h -1 v 1 h -1 v 1 h -1 v 2 h -1 v 1 h -1 v 1 h -1 v 1 h -1 v 2 h -1 v 1 h -1 v 1 h -1 v 1 h -1 v 2 h -1 v 2 h -1 v 1 h -1 v 2 h -1 v 2 h -1 v 2 h -1 v 2 h -1 v 2 h -1 v 2 h -1 v 2 h -1 v 2 h -1 v 2 h -1 v 2 h -1 v 3 h -1 v 3 h -1 v 3 h -1 v 3 h -1 v 4 h -1 v 3 h -1 v 4 h -1 v 5 h -1 v 5 h -1 v 5 h -1 v 6 h -1 v 5 h -1 v 5 h -1 v 5 h -1 v 5 h -1 v 5 h -1 v 5 h -1 v 6 h -1 v 5 h -1 v 5 h -1 v 5 h -1 v 5 h -1 v 5 h -1 v 5 h -1 v 5 h -1 v 6 h -1 v 5 h -1 v 5 h -1 v 5 h -1 v 5 h -1 v 5 h -1 v 5 h -1 v 5 h -1 v 6 h -1 v 5 h -1 v 5 h -1 v 5 h -1 v 5 h -1 v 5 h -1 v 5 h -1 v 5 h -1 v 6 h -1 v 5 h -1 v 5 h -1 v 5 h -1 v 5 h -1 v 5 h -1 v 5 h -1 v 5 h -1 v 6 h -1 v 5 h -1 v 5 h -1 v 5 h -1 v 5 h -1 v 5 h -1 v 5 h -1 v 6 h -1 v 5 h -1 v 5 h -1 v 5 h -1 v 5 h -1 v 5 h -1 v 5 h -1 v 5 h -1 v 6 h -1 v 5 h -1 v 5 h -1 v 5 h -1 v 5 h -1 v 5 h -1 v 5 h -1 v 5 h -1 v 6 h -1 v 5 h -1 v 5 h -1 v 5 h -1 v 5 h -1 v 5 h -1 v 5 h -1 v 5 h -1 v 6 h -1 v 5 h -1 v 5 h -1 v 5 h -1 v 5 h -1 v 5 h -1 v 5 h -1 v 5 h -1 v 6 h -1 v 5 h -1 v 5 h -1 v 5 h -1 v 5 h -1 v 5 h -1 v 5 h -1 v 5 h -1 v 6 h -1 v 5 h -1 v 5 h -1 v 5 h -1 v 5 h -1 v 5 h -1 v 5 h -1 v 6 h -1 v 5 h -1 v 5 h -1 v 5 h -1 v 5 h -1 v 5 h -1 v 5 h -1 v 5 h -1 v 6 h -1 v 5 h -1 v 5 h -1 v 5 h -1 v 5 h -1 v 5 h -1 v 5 h -1 v 5 h -1 v 6 h -1 v 5 h -1 v 5 h -1 v 5 h -1 v 5 h -1 v 5 h -1 v 5 h -1 v 5 h -1 v 6 h -1 v 5 h -1 v 5 h -1 v 5 h -1 v 5 h -1 v 5 h -1 v 5 h -1 v 5 h -1 v 6 H 9 v 5 H 8 v 5 H 7 v 5 H 6 v 5 H 5 v 5 H 4 v 5 H 3 v 5 H 2 v 6 H 1 v 10 H 0 v 26 h 1 v 6 h 1 v 5 h 1 v 4 h 1 v 3 h 1 v 3 h 1 v 2 h 1 v 3 h 1 v 2 h 1 v 2 h 1 v 2 h 1 v 2 h 1 v 2 h 1 v 2 h 1 v 1 h 1 v 2 h 1 v 1 h 1 v 2 h 1 v 1 h 1 v 2 h 1 v 1 h 1 v 1 h 1 v 1 h 1 v 2 h 1 v 1 h 1 v 1 h 1 v 1 h 1 v 1 h 1 v 1 h 1 v 1 h 1 v 1 h 1 v 1 h 1 v 1 h 1 v 1 h 1 v 1 h 1 v 1 h 1 v 1 h 1 v 1 h 1 v 1 h 1 v 2 h 1 v 1 h 1 v 1 h 1 v 1 h 1 v 1 h 1 v 1 h 1 v 1 h 1 v 1 h 1 v 1 h 1 v 1 h 1 v 1 h 1 v 1 h 1 v 1 h 1 v 1 h 1 v 1 h 1 v 1 h 1 v 1 h 1 v 1 h 1 v 1 h 1 v 1 h 1 v 2 h 1 v 1 h 1 v 1 h 1 v 1 h 1 v 1 h 1 v 1 h 1 v 1 h 1 v 1 h 1 v 1 h 1 v 1 h 1 v 1 h 1 v 1 h 1 v 1 h 1 v 1 h 1 v 1 h 1 v 1 h 1 v 1 h 1 v 1 h 1 v 1 h 1 v 1 h 1 v 2 h 1 v 1 h 1 v 1 h 1 v 1 h 1 v 1 h 1 v 1 h 1 v 1 h 1 v 1 h 1 v 1 h 1 v 1 h 1 v 1 h 1 v 1 h 1 v 1 h 1 v 1 h 1 v 1 h 1 v 1 h 1 v 1 h 1 v 1 h 1 v 1 h 1 v 1 h 1 v 2 h 1 v 1 h 1 v 1 h 1 v 1 h 1 v 1 h 1 v 1 h 1 v 1 h 1 v 1 h 1 v 1 h 1 v 1 h 1 v 1 h 1 v 1 h 1 v 1 h 1 v 1 h 1 v 1 h 1 v 1 h 1 v 1 h 1 v 1 h 1 v 1 h 1 v 1 h 1 v 2 h 1 v 1 h 1 v 1 h 1 v 1 h 1 v 1 h 1 v 1 h 1 v 1 h 1 v 1 h 1 v 1 h 1 v 1 h 1 v 1 h 1 v 1 h 1 v 1 h 1 v 1 h 1 v 1 h 1 v 1 h 1 v 1 h 1 v 1 h 1 v 1 h 1 v 1 h 1 v 2 h 1 v 1 h 1 v 1 h 1 v 1 h 1 v 1 h 1 v 1 h 1 v 1 h 1 v 1 h 1 v 1 h 1 v 1 h 1 v 1 h 1 v 1 h 1 v 1 h 1 v 1 h 1 v 1 h 1 v 1 h 1 v 1 h 1 v 1 h 1 v 1 h 1 v 1 h 1 v 2 h 1 v 1 h 1 v 1 h 1 v 1 h 1 v 1 h 1 v 1 h 1 v 1 h 1 v 1 h 1 v 1 h 1 v 1 h 1 v 1 h 1 v 1 h 1 v 1 h 1 v 1 h 1 v 1 h 1 v 1 h 1 v 1 h 1 v 1 h 1 v 1 h 1 v 1 h 1 v 2 h 1 v 1 h 1 v 1 h 1 v 1 h 1 v 1 h 1 v 1 h 1 v 1 h 1 v 1 h 1 v 1 h 1 v 1 h 1 v 1 h 1 v 1 h 1 v 1 h 1 v 1 h 1 v 1 h 1 v 1 h 1 v 1 h 1 v 1 h 1 v 1 h 1 v 1 h 1 v 2 h 1 v 1 h 1 v 1 h 1 v 1 h 1 v 1 h 1 v 1 h 1 v 1 h 1 v 1 h 1 v 1 h 1 v 1 h 1 v 1 h 1 v 1 h 1 v 1 h 1 v 1 h 1 v 1 h 1 v 1 h 1 v 1 h 1 v 1 h 1 v 1 h 1 v 1 h 1 v 2 h 1 v 1 h 1 v 1 h 1 v 1 h 1 v 1 h 1 v 1 h 1 v 1 h 1 v 1 h 1 v 1 h 1 v 1 h 1 v 1 h 1 v 1 h 1 v 1 h 1 v 1 h 1 v 1 h 1 v 1 h 1 v 1 h 1 v 1 h 1 v 1 h 1 v 1 h 1 v 1 h 1 v 2 h 1 v 1 h 1 v 1 h 1 v 1 h 1 v 1 h 1 v 1 h 1 v 1 h 1 v 1 h 1 v 1 h 1 v 1 h 1 v 1 h 1 v 1 h 1 v 1 h 1 v 1 h 1 v 1 h 1 v 1 h 1 v 1 h 1 v 1 h 1 v 1 h 1 v 1 h 1 v 2 h 1 v 1 h 1 v 1 h 1 v 1 h 1 v 1 h 1 v 1 h 1 v 1 h 1 v 1 h 1 v 1 h 1 v 1 h 1 v 1 h 1 v 1 h 1 v 1 h 1 v 1 h 1 v 1 h 1 v 1 h 1 v 1 h 1 v 1 h 1 v 1 h 1 v 1 h 1 v 2 h 1 v 1 h 1 v 1 h 1 v 1 h 1 v 1 h 1 v 1 h 1 v 1 h 1 v 1 h 1 v 1 h 1 v 1 h 1 v 1 h 1 v 1 h 1 v 1 h 1 v 1 h 1 v 1 h 1 v 1 h 1 v 1 h 1 v 1 h 1 v 1 h 1 v 1 h 1 v 2 h 1 v 1 h 1 v 1 h 1 v 1 h 1 v 1 h 1 v 1 h 1 v 1 h 1 v 1 h 1 v 1 h 1 v 1 h 1 v 1 h 1 v 1 h 1 v 1 h 1 v 1 h 1 v 1 h 1 v 1 h 1 v 1 h 1 v 1 h 1 v 1 h 1 v 1 h 1 v 2 h 1 v 1 h 1 v 1 h 1 v 1 h 1 v 1 h 1 v 1 h 1 v 1 h 1 v 1 h 1 v 1 h 1 v 1 h 1 v 1 h 1 v 1 h 1 v 1 h 1 v 1 h 1 v -2 h -1 v -1 h -1 v -1 h -1 v -1 h -1 v -2 h -1 v -1 h -1 v -1 h -1 v -1 h -1 v -2 h -1 v -1 h -1 v -2 h -1 v -1 h -1 v -2 h -1 v -1 h -1 v -2 h -1 v -2 h -1 v -2 h -1 v -2 h -1 v -3 h -1 v -2 h -1 v -3 h -1 v -3 h -1 v -2 h -1 v -4 h -1 v -4 h -1 v -6 h -1 v -8 h -1 v -20 h 1 v -8 h 1 v -6 h 1 v -5 h 1 v -4 h 1 v -5 h 1 v -5 h 1 v -5 h 1 v -5 h 1 v -5 h 1 v -5 h 1 v -5 h 1 v -5 h 1 v -5 h 1 v -4 h 1 v -5 h 1 v -5 h 1 v -5 h 1 v -5 h 1 v -5 h 1 v -5 h 1 v -5 h 1 v -5 h 1 v -5 h 1 v -5 h 1 v -4 h 1 v -5 h 1 v -5 h 1 v -5 h 1 v -5 h 1 v -5 h 1 v -5 h 1 v -5 h 1 v -5 h 1 v -5 h 1 v -4 h 1 v -5 h 1 v -5 h 1 v -5 h 1 v -5 h 1 v -5 h 1 v -5 h 1 v -5 h 1 v -5 h 1 v -5 h 1 v -4 h 1 v -5 h 1 v -5 h 1 v -5 h 1 v -5 h 1 v -5 h 1 v -5 h 1 v -5 h 1 v -5 h 1 v -5 h 1 v -4 h 1 v -5 h 1 v -5 h 1 v -5 h 1 v -5 h 1 v -5 h 1 v -5 h 1 v -5 h 1 v -5 h 1 v -5 h 1 v -4 h 1 v -5 h 1 v -5 h 1 v -5 h 1 v -5 h 1 v -5 h 1 v -5 h 1 v -5 h 1 v -5 h 1 v -5 h 1 v -5 h 1 v -4 h 1 v -5 h 1 v -5 h 1 v -5 h 1 v -5 h 1 v -5 h 1 v -5 h 1 v -5 h 1 v -5 h 1 v -5 h 1 v -4 h 1 v -5 h 1 v -5 h 1 v -5 h 1 v -5 h 1 v -5 h 1 v -5 h 1 v -5 h 1 v -5 h 1 v -5 h 1 v -4 h 1 v -5 h 1 v -5 h 1 v -5 h 1 v -5 h 1 v -5 h 1 v -5 h 1 v -5 h 1 v -5 h 1 v -5 h 1 v -4 h 1 v -5 h 1 v -5 h 1 v -5 h 1 v -5 h 1 v -5 h 1 v -5 h 1 v -5 h 1 v -5 h 1 v -5 h 1 v -4 h 1 v -5 h 1 v -5 h 1 v -5 h 1 v -5 h 1 v -5 h 1 v -5 h 1 v -5 h 1 v -5 h 1 v -5 h 1 v -4 h 1 v -5 h 1 v -5 h 1 v -5 h 1 v -5 h 1 v -5 h 1 v -5 h 1 v -5 h 1 v -5 h 1 v -5 h 1 v -5 h 1 v -4 h 1 v -5 h 1 v -5 h 1 v -5 h 1 v -5 h 1 v -5 h 1 v -5 h 1 v -5 h 1 v -5 h 1 v -5 h 1 v -4 h 1 v -5 h 1 v -5 h 1 v -5 h 1 v -5 h 1 v -5 h 1 v -5 h 1 v -4 h 1 v -3 h 1 v -4 h 1 v -3 h 1 v -3 h 1 v -3 h 1 v -3 h 1 v -2 h 1 v -3 h 1 v -2 h 1 v -2 h 1 v -2 h 1 v -2 h 1 v -2 h 1 v -2 h 1 v -2 h 1 v -2 h 1 v -1 h 1 v -2 h 1 v -1 h 1 v -2 h 1 v -2 h 1 v -1 h 1 v -1 h 1 v -1 h 1 v -2 h 1 v -1 h 1 v -1 h 1 v -1 h 1 v -2 h 1 v -1 h 1 v -1 h 1 v -2 h 1 v -1 h 1 v -1 h 1 v -1 h 1 v -1 h 1 v -1 h 1 v -1 h 1 v -1 h 1 v -1 h 1 v -1 h 1 v -1 h 1 v -1 h 1 v -1 h 1 v -1 h 1 v -1 h 1 v -1 h 1 v -1 h 1 v -1 h 2 v -1 h 1 v -1 h 1 v -1 h 1 v -1 h 2 v -1 h 1 v -1 h 2 v -1 h 1 v -1 h 2 v -1 h 1 v -1 h 2 v -1 h 2 v -1 h 1 v -1 h 2 v -1 h 1 v -1 h 2 v -1 h 2 v -1 h 2 v -1 h 2 v -1 h 2 v -1 h 2 v -1 h 3 v -1 h 2 v -1 h 2 v -1 h 2 v -1 h 3 v -1 h 3 v -1 h 3 v -1 h 5 v -1 h 5 v -1 h 5 v -1 h 5 v -1 h 30 v 1 h 12 v 1 h 11 v 1 h 12 v 1 h 11 v 1 h 12 v 1 h 11 v 1 h 12 v 1 h 12 v 1 h 11 v 1 h 12 v 1 h 11 v 1 h 12 v 1 h 12 v 1 h 11 v 1 h 12 v 1 h 11 v 1 h 12 v 1 h 12 v 1 h 11 v 1 h 12 v 1 h 11 v 1 h 12 v 1 h 11 v 1 h 12 v 1 h 12 v 1 h 11 v 1 h 12 v 1 h 11 v 1 h 12 v 1 h 12 v 1 h 11 v 1 h 12 v 1 h 11 v 1 h 12 v 1 h 12 v 1 h 11 v 1 h 12 v 1 h 11 v 1 h 12 v 1 h 11 v 1 h 12 v 1 h 12 v 1 h 11 v 1 h 12 v 1 h 11 v 1 h 12 v 1 h 12 v 1 h 11 v 1 h 12 v 1 h 11 v 1 h 12 v 1 h 11 v 1 h 12 v 1 h 12 v 1 h 11 v 1 h 12 v 1 h 11 v 1 h 12 v 1 h 12 v 1 h 11 v 1 h 12 v 1 h 11 v 1 h 4 v -2 h -1 v -1 h -2 v -1 h -1 v -1 h -2 v -1 h -1 v -1 h -1 v -1 h -2 v -1 h -1 v -1 h -1 v -1 h -2 v -1 h -1 v -1 h -1 v -1 h -2 v -1 h -1 v -1 h -1 v -1 h -2 v -1 h -1 v -1 h -2 v -1 h -1 v -1 h -1 v -1 h -2 v -1 h -1 v -1 h -1 v -1 h -2 v -1 h -1 v -1 h -1 v -1 h -2 v -1 h -1 v -1 h -2 v -1 h -1 v -1 h -1 v -1 h -2 v -1 h -1 v -1 h -1 v -1 h -2 v -1 h -1 v -1 h -1 v -1 h -2 v -1 h -1 v -1 h -1 v -1 h -2 v -1 h -1 v -1 h -2 v -1 h -1 v -1 h -1 v -1 h -2 v -1 h -1 v -1 h -1 v -1 h -2 v -1 h -1 v -1 h -1 v -1 h -2 v -1 h -1 v -1 h -2 v -1 h -1 v -1 h -1 v -1 h -2 v -1 h -1 v -1 h -1 v -1 h -2 v -1 h -1 v -1 h -1 v -1 h -2 v -1 h -1 v -1 h -1 v -1 h -2 v -1 h -1 v -1 h -2 v -1 h -1 v -1 h -1 v -1 h -2 v -1 h -1 v -1 h -1 v -1 h -2 v -1 h -1 v -1 h -1 v -1 h -2 v -1 h -1 v -1 h -2 v -1 h -1 v -1 h -1 v -1 h -2 v -1 h -1 v -1 h -1 v -1 h -2 v -1 h -1 v -1 h -1 v -1 h -2 v -1 h -1 v -1 h -2 v -1 h -1 v -1 h -1 v -1 h -2 v -1 h -1 v -1 h -1 v -1 h -2 v -1 h -1 v -1 h -1 v -1 h -2 v -1 h -1 v -1 h -1 v -1 h -2 v -1 h -1 v -1 h -2 v -1 h -1 v -1 h -1 v -1 h -2 v -1 h -1 v -1 h -1 v -1 h -2 v -1 h -1 v -1 h -1 v -1 h -2 v -1 h -1 v -1 h -2 v -1 h -1 v -1 h -1 v -1 h -2 v -1 h -1 v -1 h -1 v -1 h -2 v -1 h -1 v -1 h -1 v -1 h -2 v -1 h -1 v -1 h -1 v -1 h -2 v -1 h -1 v -1 h -2 v -1 h -1 v -1 h -1 v -1 h -2 v -1 h -1 v -1 h -1 v -1 h -2 v -1 h -1 v -1 h -1 v -1 h -2 v -1 h -1 v -1 h -2 v -1 h -1 v -1 h -1 v -1 h -2 v -1 h -1 v -1 h -1 v -1 h -2 v -1 h -1 v -1 h -1 v -1 h -2 v -1 h -1 v -1 h -1 v -1 h -2 v -1 h -1 v -1 h -2 v -1 h -1 v -1 h -1 v -1 h -2 v -1 h -1 v -1 h -1 v -1 h -2 v -1 h -1 v -1 h -1 v -1 h -2 v -1 h -1 v -1 h -2 v -1 h -1 v -1 h -1 v -1 h -2 v -1 h -1 v -1 h -1 v -1 h -2 v -1 h -1 v -1 h -1 v -1 h -2 v -1 h -1 v -1 h -1 v -1 h -2 v -1 h -1 v -1 h -2 v -1 h -1 v -1 h -1 v -1 h -2 v -1 h -1 v -1 h -1 v -1 h -2 v -1 h -1 v -1 h -1 v -1 h -2 v -1 h -1 v -1 h -2 v -1 h -1 v -1 h -1 v -1 h -2 v -1 h -1 v -1 h -1 v -1 h -2 v -1 h -1 v -1 h -1 v -1 h -2 v -1 h -1 v -1 h -2 v -1 h -1 v -1 h -1 v -1 h -2 v -1 h -1 v -1 h -1 v -1 h -2 v -1 h -1 v -1 h -1 v -1 h -2 v -1 h -1 v -1 h -1 v -1 h -2 v -1 h -1 v -1 h -2 v -1 h -1 v -1 h -1 v -1 h -2 v -1 h -1 v -1 h -1 v -1 h -2 v -1 h -1 v -1 h -1 v -1 h -2 v -1 h -1 v -1 h -2 v -1 h -1 v -1 h -1 v -1 h -2 v -1 h -1 v -1 h -1 v -1 h -2 v -1 h -1 v -1 h -1 v -1 h -2 v -1 h -1 v -1 h -1 v -1 h -2 v -1 h -1 v -1 h -2 v -1 h -1 v -1 h -1 v -1 h -2 v -1 h -1 v -1 h -1 v -1 h -2 v -1 h -1 v -1 h -1 v -1 h -2 v -1 h -1 v -1 h -2 v -1 h -1 v -1 h -1 v -1 h -2 v -1 h -1 v -1 h -1 v -1 h -2 v -1 h -1 v -1 h -1 v -1 h -2 v -1 h -1 v -1 h -1 v -1 h -2 v -1 h -1 v -1 h -2 v -1 h -2 v -1 h -10 v -1 h -11 v -1 h -10 v -1 h -10 v -1 h -11 v -1 h -10 v -1 h -10 v -1 h -11 v -1 h -10 v -1 h -10 v -1 h -11 v -1 h -10 v -1 h -10 v -1 h -11 v -1 h -10 v -1 h -10 v -1 h -11 v -1 h -10 v -1 h -10 v -1 h -10 v -1 h -11 v -1 h -10 v -1 h -10 v -1 h -11 v -1 h -10 v -1 h -10 v -1 h -11 v -1 h -10 v -1 h -10 v -1 h -11 v -1 h -10 v -1 h -10 v -1 h -10 v -1 h -11 v -1 h -10 v -1 h -10 v -1 h -11 v -1 h -10 v -1 h -10 v -1 h -11 v -1 h -10 v -1 h -10 v -1 h -11 v -1 h -10 v -1 h -10 v -1 h -11 v -1 h -10 v -1 h -10 v -1 h -10 v -1 h -11 v -1 h -10 v -1 h -10 v -1 h -11 v -1 h -10 v -1 h -10 v -1 h -11 v -1 h -10 v -1 h -10 v -1 h -11 v -1 h -10 v -1 h -10 v -1 h -10 v -1 h -11 v -1 h -10 v -1 h -10 v -1 h -11 v -1 h -10 v -1" /></g></g></g><g
         id="g92"><g
           clip-path="url(#clipPath98)"
           id="g94"><g
             clip-path="url(#clipPath104)"
             id="g100"><path
               id="path116"
               style="fill:url(#linearGradient114);fill-opacity:1;fill-rule:nonzero;stroke:none"
               d="m 1625,217 v 1 h -6 v 1 h -5 v 1 h -5 v 1 h -5 v 1 h -3 v 1 h -3 v 1 h -2 v 1 h -2 v 1 h -3 v 1 h -2 v 1 h -3 v 1 h -2 v 1 h -2 v 1 h -2 v 1 h -2 v 1 h -1 v 1 h -2 v 1 h -2 v 1 h -1 v 1 h -2 v 1 h -1 v 1 h -2 v 1 h -1 v 1 h -2 v 1 h -1 v 1 h -2 v 1 h -1 v 1 h -1 v 1 h -1 v 1 h -1 v 1 h -1 v 1 h -2 v 1 h -1 v 1 h -1 v 1 h -1 v 1 h -1 v 1 h -1 v 1 h -1 v 1 h -1 v 1 h -1 v 1 h -1 v 1 h -1 v 1 h -1 v 1 h -1 v 1 h -1 v 1 h -1 v 1 h -1 v 2 h -1 v 1 h -1 v 1 h -1 v 2 h -1 v 1 h -1 v 1 h -1 v 2 h -1 v 1 h -1 v 1 h -1 v 2 h -1 v 1 h -1 v 1 h -1 v 2 h -1 v 1 h -1 v 2 h -1 v 2 h -1 v 2 h -1 v 2 h -1 v 2 h -1 v 2 h -1 v 2 h -1 v 2 h -1 v 2 h -1 v 2 h -1 v 2 h -1 v 3 h -1 v 3 h -1 v 3 h -1 v 3 h -1 v 3 h -1 v 3 h -1 v 3 h -1 v 4 h -1 v 5 h -1 v 4 h -1 v 5 h -1 v 4 h -1 v 5 h -1 v 4 h -1 v 5 h -1 v 4 h -1 v 5 h -1 v 4 h -1 v 4 h -1 v 5 h -1 v 4 h -1 v 5 h -1 v 4 h -1 v 5 h -1 v 4 h -1 v 5 h -1 v 4 h -1 v 5 h -1 v 4 h -1 v 4 h -1 v 5 h -1 v 4 h -1 v 5 h -1 v 4 h -1 v 5 h -1 v 4 h -1 v 5 h -1 v 4 h -1 v 5 h -1 v 4 h -1 v 4 h -1 v 5 h -1 v 4 h -1 v 5 h -1 v 4 h -1 v 5 h -1 v 4 h -1 v 5 h -1 v 4 h -1 v 4 h -1 v 5 h -1 v 4 h -1 v 5 h -1 v 4 h -1 v 5 h -1 v 4 h -1 v 5 h -1 v 4 h -1 v 5 h -1 v 4 h -1 v 4 h -1 v 5 h -1 v 4 h -1 v 5 h -1 v 4 h -1 v 5 h -1 v 4 h -1 v 5 h -1 v 4 h -1 v 5 h -1 v 4 h -1 v 4 h -1 v 5 h -1 v 4 h -1 v 5 h -1 v 4 h -1 v 5 h -1 v 4 h -1 v 5 h -1 v 4 h -1 v 5 h -1 v 4 h -1 v 4 h -1 v 5 h -1 v 4 h -1 v 5 h -1 v 4 h -1 v 5 h -1 v 4 h -1 v 5 h -1 v 4 h -1 v 4 h -1 v 5 h -1 v 4 h -1 v 5 h -1 v 4 h -1 v 5 h -1 v 4 h -1 v 5 h -1 v 4 h -1 v 5 h -1 v 4 h -1 v 4 h -1 v 5 h -1 v 4 h -1 v 5 h -1 v 4 h -1 v 5 h -1 v 4 h -1 v 5 h -1 v 4 h -1 v 5 h -1 v 4 h -1 v 4 h -1 v 5 h -1 v 4 h -1 v 5 h -1 v 4 h -1 v 5 h -1 v 4 h -1 v 5 h -1 v 4 h -1 v 5 h -1 v 4 h -1 v 4 h -1 v 5 h -1 v 4 h -1 v 5 h -1 v 4 h -1 v 5 h -1 v 4 h -1 v 5 h -1 v 4 h -1 v 4 h -1 v 5 h -1 v 4 h -1 v 5 h -1 v 4 h -1 v 5 h -1 v 4 h -1 v 5 h -1 v 4 h -1 v 5 h -1 v 4 h -1 v 4 h -1 v 5 h -1 v 4 h -1 v 5 h -1 v 4 h -1 v 5 h -1 v 4 h -1 v 5 h -1 v 4 h -1 v 5 h -1 v 4 h -1 v 4 h -1 v 5 h -1 v 4 h -1 v 5 h -1 v 4 h -1 v 5 h -1 v 4 h -1 v 5 h -1 v 4 h -1 v 5 h -1 v 4 h -1 v 4 h -1 v 5 h -1 v 4 h -1 v 5 h -1 v 4 h -1 v 5 h -1 v 4 h -1 v 5 h -1 v 4 h -1 v 4 h -1 v 5 h -1 v 4 h -1 v 5 h -1 v 4 h -1 v 5 h -1 v 1 h -2 v -1 h -11 v -1 h -12 v -1 h -11 v -1 h -12 v -1 h -12 v -1 h -11 v -1 h -12 v -1 h -11 v -1 h -12 v -1 h -12 v -1 h -11 v -1 h -12 v -1 h -11 v -1 h -12 v -1 h -11 v -1 h -12 v -1 h -12 v -1 h -11 v -1 h -12 v -1 h -11 v -1 h -12 v -1 h -12 v -1 h -11 v -1 h -12 v -1 h -11 v -1 h -12 v -1 h -12 v -1 h -11 v -1 h -12 v -1 h -11 v -1 h -12 v -1 h -11 v -1 h -12 v -1 h -12 v -1 h -11 v -1 h -12 v -1 h -11 v -1 h -12 v -1 h -12 v -1 h -11 v -1 h -12 v -1 h -11 v -1 h -12 v -1 h -12 v -1 h -11 v -1 h -12 v -1 h -11 v -1 h -12 v -1 h -11 v -1 h -12 v -1 h -12 v -1 h -11 v -1 h -12 v -1 h -11 v -1 h -12 v -1 h -12 v -1 h -11 v -1 h -12 v -1 h -11 v -1 h -12 v -1 h -12 v -1 h -11 v -1 h -32 v 1 h -5 v 1 h -5 v 1 h -5 v 1 h -5 v 1 h -3 v 1 h -3 v 1 h -3 v 1 h -2 v 1 h -2 v 1 h -2 v 1 h -3 v 1 h -2 v 1 h -2 v 1 h -2 v 1 h -2 v 1 h -2 v 1 h -2 v 1 h -1 v 1 h -2 v 1 h -1 v 1 h -2 v 1 h -2 v 1 h -1 v 1 h -2 v 1 h -1 v 1 h -2 v 1 h -1 v 1 h -2 v 1 h -1 v 1 h -1 v 1 h -1 v 1 h -1 v 1 h -1 v 1 h -1 v 1 h -2 v 1 h -1 v 1 h -1 v 1 h -1 v 1 h -1 v 1 h -1 v 1 h -1 v 1 h -1 v 1 h -1 v 1 h -1 v 1 h -1 v 1 h -1 v 1 h -1 v 1 h -1 v 1 h -1 v 2 h -1 v 1 h -1 v 1 h -1 v 2 h -1 v 1 h -1 v 1 h -1 v 1 h -1 v 2 h -1 v 1 h -1 v 1 h -1 v 2 h -1 v 1 h -1 v 2 h -1 v 1 h -1 v 2 h -1 v 2 h -1 v 2 h -1 v 2 h -1 v 2 h -1 v 1 h -1 v 2 h -1 v 2 h -1 v 2 h -1 v 2 h -1 v 2 h -1 v 3 h -1 v 3 h -1 v 3 h -1 v 3 h -1 v 4 h -1 v 3 h -1 v 3 h -1 v 4 h -1 v 5 h -1 v 5 h -1 v 5 h -1 v 5 h -1 v 5 h -1 v 5 h -1 v 4 h -1 v 5 h -1 v 5 h -1 v 5 h -1 v 5 h -1 v 5 h -1 v 5 h -1 v 5 h -1 v 5 h -1 v 5 h -1 v 5 h -1 v 4 h -1 v 5 h -1 v 5 h -1 v 5 h -1 v 5 h -1 v 5 h -1 v 5 h -1 v 5 h -1 v 5 h -1 v 5 h -1 v 4 h -1 v 5 h -1 v 5 h -1 v 5 h -1 v 5 h -1 v 5 h -1 v 5 h -1 v 5 h -1 v 5 h -1 v 5 h -1 v 4 h -1 v 5 h -1 v 5 h -1 v 5 h -1 v 5 h -1 v 5 h -1 v 5 h -1 v 5 h -1 v 5 h -1 v 5 h -1 v 4 h -1 v 5 h -1 v 5 h -1 v 5 h -1 v 5 h -1 v 5 h -1 v 5 h -1 v 5 h -1 v 5 h -1 v 5 h -1 v 4 h -1 v 5 h -1 v 5 h -1 v 5 h -1 v 5 h -1 v 5 h -1 v 5 h -1 v 5 h -1 v 5 h -1 v 5 h -1 v 4 h -1 v 5 h -1 v 5 h -1 v 5 h -1 v 5 h -1 v 5 h -1 v 5 h -1 v 5 h -1 v 5 h -1 v 5 h -1 v 5 h -1 v 4 h -1 v 5 h -1 v 5 h -1 v 5 h -1 v 5 h -1 v 5 h -1 v 5 h -1 v 5 h -1 v 5 h -1 v 5 h -1 v 4 h -1 v 5 h -1 v 5 h -1 v 5 h -1 v 5 h -1 v 5 h -1 v 5 h -1 v 5 h -1 v 5 h -1 v 5 h -1 v 4 h -1 v 5 h -1 v 5 h -1 v 5 h -1 v 5 h -1 v 5 h -1 v 5 h -1 v 5 h -1 v 5 h -1 v 5 h -1 v 4 h -1 v 5 h -1 v 5 h -1 v 5 h -1 v 5 h -1 v 5 h -1 v 5 h -1 v 5 h -1 v 5 h -1 v 5 h -1 v 4 h -1 v 5 h -1 v 5 h -1 v 5 h -1 v 5 h -1 v 5 h -1 v 5 h -1 v 5 h -1 v 5 h -1 v 5 h -1 v 5 h -1 v 4 h -1 v 5 h -1 v 5 h -1 v 5 h -1 v 5 h -1 v 5 h -1 v 5 h -1 v 5 h -1 v 5 h -1 v 5 h -1 v 4 h -1 v 5 h -1 v 5 h -1 v 5 h -1 v 5 h -1 v 5 h -1 v 5 h -1 v 5 h -1 v 5 h -1 v 5 h -1 v 4 h -1 v 5 h -1 v 8 h -1 v 9 h -1 v 17 h 1 v 9 h 1 v 7 h 1 v 4 h 1 v 3 h 1 v 3 h 1 v 3 h 1 v 2 h 1 v 3 h 1 v 3 h 1 v 1 h 1 v 2 h 1 v 2 h 1 v 2 h 1 v 2 h 1 v 1 h 1 v 2 h 1 v 2 h 1 v 1 h 1 v 2 h 1 v 1 h 1 v 1 h 1 v 1 h 1 v 2 h 1 v 1 h 1 v 1 h 1 v 1 h 1 v 1 h 1 v 1 h 1 v 1 h 1 v 1 h 1 v 1 h 1 v 1 h 1 v 1 h 1 v 1 h 1 v 1 h 2 v 1 h 1 v 1 h 2 v 1 h 1 v 1 h 2 v 1 h 1 v 1 h 2 v 1 h 1 v 1 h 2 v 1 h 1 v 1 h 2 v 1 h 2 v 1 h 2 v 1 h 3 v 1 h 2 v 1 h 3 v 1 h 3 v 1 h 3 v 1 h 3 v 1 h 5 v 1 h 6 v 1 h 5 v 1 h 14 v 1 h 24 v 1 h 23 v 1 h 24 v 1 h 24 v 1 h 24 v 1 h 24 v 1 h 23 v 1 h 24 v 1 h 24 v 1 h 24 v 1 h 23 v 1 h 24 v 1 h 24 v 1 h 24 v 1 h 24 v 1 h 23 v 1 h 24 v 1 h 24 v 1 h 24 v 1 h 23 v 1 h 24 v 1 h 24 v 1 h 24 v 1 h 24 v 1 h 23 v 1 h 24 v 1 h 24 v 1 h 24 v 1 h 23 v 1 h 22 v 2 h -1 v 5 h -1 v 4 h -1 v 5 h -1 v 4 h -1 v 5 h -1 v 4 h -1 v 5 h -1 v 4 h -1 v 4 h -1 v 5 h -1 v 4 h -1 v 5 h -1 v 4 h -1 v 5 h -1 v 4 h -1 v 5 h -1 v 4 h -1 v 5 h -1 v 4 h -1 v 4 h -1 v 5 h -1 v 4 h -1 v 5 h -1 v 4 h -1 v 5 h -1 v 4 h -1 v 5 h -1 v 4 h -1 v 4 h -1 v 5 h -1 v 4 h -1 v 5 h -1 v 4 h -1 v 5 h -1 v 4 h -1 v 5 h -1 v 4 h -1 v 5 h -1 v 4 h -1 v 4 h -1 v 5 h -1 v 4 h -1 v 5 h -1 v 4 h -1 v 5 h -1 v 4 h -1 v 5 h -1 v 4 h -1 v 5 h -1 v 4 h -1 v 4 h -1 v 5 h -1 v 4 h -1 v 5 h -1 v 4 h -1 v 5 h -1 v 4 h -1 v 5 h -1 v 4 h -1 v 5 h -1 v 4 h -1 v 4 h -1 v 5 h -1 v 4 h -1 v 5 h -1 v 4 h -1 v 5 h -1 v 4 h -1 v 5 h -1 v 4 h -1 v 4 h -1 v 5 h -1 v 4 h -1 v 5 h -1 v 4 h -1 v 5 h -1 v 4 h -1 v 5 h -1 v 4 h -1 v 5 h -1 v 4 h -1 v 4 h -1 v 5 h -1 v 4 h -1 v 5 h -1 v 4 h -1 v 5 h -1 v 4 h -1 v 5 h -1 v 4 h -1 v 5 h -1 v 4 h -1 v 4 h -1 v 5 h -1 v 4 h -1 v 5 h -1 v 4 h -1 v 5 h -1 v 4 h -1 v 5 h -1 v 4 h -1 v 5 h -1 v 4 h -1 v 4 h -1 v 5 h -1 v 4 h -1 v 5 h -1 v 4 h -1 v 5 h -1 v 4 h -1 v 5 h -1 v 4 h -1 v 4 h -1 v 5 h -1 v 4 h -1 v 5 h -1 v 4 h -1 v 5 h -1 v 4 h -1 v 5 h -1 v 4 h -1 v 5 h -1 v 4 h -1 v 4 h -1 v 5 h -1 v 4 h -1 v 5 h -1 v 4 h -1 v 5 h -1 v 4 h -1 v 5 h -1 v 4 h -1 v 5 h -1 v 4 h -1 v 4 h -1 v 5 h -1 v 4 h -1 v 5 h -1 v 4 h -1 v 5 h -1 v 4 h -1 v 5 h -1 v 4 h -1 v 5 h -1 v 4 h -1 v 4 h -1 v 5 h -1 v 4 h -1 v 5 h -1 v 4 h -1 v 5 h -1 v 4 h -1 v 5 h -1 v 4 h -1 v 4 h -1 v 5 h -1 v 4 h -1 v 5 h -1 v 4 h -1 v 6 h -1 v 8 h -1 v 8 h -1 v 6 h 1 v 12 h 1 v 8 h 1 v 3 h 1 v 3 h 1 v 3 h 1 v 3 h 1 v 3 h 1 v 3 h 1 v 1 h 1 v 2 h 1 v 2 h 1 v 2 h 1 v 2 h 1 v 2 h 1 v 1 h 1 v 2 h 1 v 1 h 1 v 1 h 1 v 2 h 1 v 1 h 1 v 1 h 1 v 1 h 1 v 1 h 1 v 1 h 1 v 1 h 1 v 1 h 1 v 1 h 1 v 1 h 1 v 1 h 1 v 1 h 2 v 1 h 1 v 1 h 2 v 1 h 1 v 1 h 2 v 1 h 1 v 1 h 2 v 1 h 1 v 1 h 2 v 1 h 1 v 1 h 2 v 1 h 3 v 1 h 3 v 1 h 3 v 1 h 3 v 1 h 2 v 1 h 3 v 1 h 6 v 1 h 9 v 1 h 74 v 1 h 229 v 1 h 357 v -1 h 6 v -1 h 3 v -1 h 4 v -1 h 3 v -1 h 3 v -1 h 4 v -1 h 2 v -1 h 3 v -1 h 2 v -1 h 2 v -1 h 2 v -1 h 2 v -1 h 2 v -1 h 2 v -1 h 1 v -1 h 2 v -1 h 2 v -1 h 2 v -1 h 1 v -1 h 2 v -1 h 1 v -1 h 1 v -1 h 2 v -1 h 1 v -1 h 2 v -1 h 1 v -1 h 2 v -1 h 1 v -1 h 1 v -1 h 1 v -1 h 1 v -1 h 2 v -1 h 1 v -1 h 1 v -1 h 1 v -1 h 1 v -1 h 1 v -1 h 1 v -1 h 1 v -1 h 1 v -1 h 1 v -1 h 1 v -1 h 1 v -1 h 1 v -1 h 1 v -1 h 1 v -1 h 1 v -2 h 1 v -1 h 1 v -1 h 1 v -2 h 1 v -1 h 1 v -1 h 1 v -2 h 1 v -1 h 1 v -1 h 1 v -2 h 1 v -1 h 1 v -1 h 1 v -2 h 1 v -1 h 1 v -2 h 1 v -2 h 1 v -2 h 1 v -2 h 1 v -2 h 1 v -2 h 1 v -2 h 1 v -2 h 1 v -1 h 1 v -3 h 1 v -3 h 1 v -2 h 1 v -3 h 1 v -3 h 1 v -3 h 1 v -3 h 1 v -4 h 1 v -4 h 1 v -4 h 1 v -4 h 1 v -4 h 1 v -4 h 1 v -4 h 1 v -4 h 1 v -4 h 1 v -4 h 1 v -4 h 1 v -5 h 1 v -4 h 1 v -4 h 1 v -4 h 1 v -4 h 1 v -4 h 1 v -4 h 1 v -4 h 1 v -4 h 1 v -4 h 1 v -4 h 1 v -4 h 1 v -4 h 1 v -4 h 1 v -5 h 1 v -4 h 1 v -4 h 1 v -4 h 1 v -4 h 1 v -4 h 1 v -4 h 1 v -4 h 1 v -4 h 1 v -4 h 1 v -4 h 1 v -4 h 1 v -4 h 1 v -4 h 1 v -5 h 1 v -4 h 1 v -4 h 1 v -4 h 1 v -4 h 1 v -4 h 1 v -4 h 1 v -4 h 1 v -4 h 1 v -4 h 1 v -4 h 1 v -4 h 1 v -4 h 1 v -4 h 1 v -4 h 1 v -5 h 1 v -4 h 1 v -4 h 1 v -4 h 1 v -4 h 1 v -4 h 1 v -4 h 1 v -4 h 1 v -4 h 1 v -4 h 1 v -4 h 1 v -4 h 1 v -4 h 1 v -4 h 1 v -5 h 1 v -4 h 1 v -4 h 1 v -4 h 1 v -4 h 1 v -4 h 1 v -4 h 1 v -4 h 1 v -4 h 1 v -4 h 1 v -4 h 1 v -4 h 1 v -4 h 1 v -4 h 1 v -4 h 1 v -5 h 1 v -4 h 1 v -4 h 1 v -4 h 1 v -4 h 1 v -4 h 1 v -4 h 1 v -4 h 1 v -4 h 1 v -4 h 1 v -4 h 1 v -4 h 1 v -4 h 1 v -4 h 1 v -5 h 1 v -4 h 1 v -4 h 1 v -4 h 1 v -4 h 1 v -4 h 1 v -4 h 1 v -4 h 1 v -4 h 1 v -4 h 1 v -4 h 1 v -4 h 1 v -4 h 1 v -4 h 1 v -5 h 1 v -4 h 1 v -4 h 1 v -4 h 1 v -4 h 1 v -4 h 1 v -4 h 1 v -4 h 1 v -4 h 1 v -4 h 1 v -4 h 1 v -4 h 1 v -4 h 1 v -4 h 1 v -4 h 1 v -5 h 1 v -4 h 1 v -4 h 1 v -4 h 1 v -4 h 1 v -4 h 1 v -4 h 1 v -4 h 1 v -4 h 1 v -4 h 1 v -4 h 1 v -4 h 1 v -4 h 1 v -4 h 1 v -5 h 1 v -4 h 1 v -4 h 1 v -4 h 1 v -4 h 1 v -4 h 1 v -4 h 1 v -4 h 1 v -4 h 1 v -4 h 1 v -4 h 1 v -4 h 1 v -4 h 1 v -4 h 1 v -5 h 1 v -4 h 1 v -4 h 1 v -4 h 1 v -4 h 1 v -4 h 1 v -4 h 1 v -4 h 1 v -4 h 1 v -4 h 1 v -4 h 1 v -4 h 1 v -4 h 1 v -4 h 1 v -4 h 3 v 1 h 24 v 1 h 24 v 1 h 24 v 1 h 23 v 1 h 24 v 1 h 24 v 1 h 24 v 1 h 23 v 1 h 24 v 1 h 24 v 1 h 24 v 1 h 24 v 1 h 23 v 1 h 24 v 1 h 24 v 1 h 24 v 1 h 23 v 1 h 24 v 1 h 24 v 1 h 24 v 1 h 24 v 1 h 23 v 1 h 24 v 1 h 24 v 1 h 24 v 1 h 23 v 1 h 4 v -1 h 15 v -1 h 5 v -1 h 4 v -1 h 4 v -1 h 3 v -1 h 4 v -1 h 3 v -1 h 2 v -1 h 2 v -1 h 2 v -1 h 2 v -1 h 2 v -1 h 2 v -1 h 2 v -1 h 2 v -1 h 2 v -1 h 2 v -1 h 1 v -1 h 2 v -1 h 1 v -1 h 1 v -1 h 2 v -1 h 1 v -1 h 2 v -1 h 1 v -1 h 1 v -1 h 2 v -1 h 1 v -1 h 1 v -1 h 2 v -1 h 1 v -1 h 1 v -1 h 1 v -1 h 1 v -1 h 1 v -1 h 1 v -1 h 1 v -1 h 1 v -1 h 1 v -1 h 1 v -1 h 1 v -1 h 1 v -1 h 1 v -1 h 1 v -1 h 1 v -2 h 1 v -1 h 1 v -1 h 1 v -2 h 1 v -1 h 1 v -1 h 1 v -1 h 1 v -2 h 1 v -1 h 1 v -1 h 1 v -1 h 1 v -2 h 1 v -2 h 1 v -1 h 1 v -2 h 1 v -2 h 1 v -2 h 1 v -1 h 1 v -2 h 1 v -2 h 1 v -2 h 1 v -2 h 1 v -2 h 1 v -2 h 1 v -2 h 1 v -3 h 1 v -3 h 1 v -3 h 1 v -2 h 1 v -3 h 1 v -3 h 1 v -4 h 1 v -4 h 1 v -3 h 1 v -4 h 1 v -4 h 1 v -4 h 1 v -4 h 1 v -3 h 1 v -4 h 1 v -4 h 1 v -4 h 1 v -4 h 1 v -3 h 1 v -4 h 1 v -4 h 1 v -4 h 1 v -4 h 1 v -3 h 1 v -4 h 1 v -4 h 1 v -4 h 1 v -4 h 1 v -3 h 1 v -4 h 1 v -4 h 1 v -4 h 1 v -3 h 1 v -4 h 1 v -4 h 1 v -4 h 1 v -4 h 1 v -3 h 1 v -4 h 1 v -4 h 1 v -4 h 1 v -4 h 1 v -3 h 1 v -4 h 1 v -4 h 1 v -4 h 1 v -4 h 1 v -3 h 1 v -4 h 1 v -4 h 1 v -4 h 1 v -4 h 1 v -3 h 1 v -4 h 1 v -4 h 1 v -4 h 1 v -4 h 1 v -3 h 1 v -4 h 1 v -4 h 1 v -4 h 1 v -4 h 1 v -3 h 1 v -4 h 1 v -4 h 1 v -4 h 1 v -4 h 1 v -3 h 1 v -4 h 1 v -4 h 1 v -4 h 1 v -4 h 1 v -3 h 1 v -4 h 1 v -4 h 1 v -4 h 1 v -3 h 1 v -4 h 1 v -4 h 1 v -4 h 1 v -4 h 1 v -3 h 1 v -4 h 1 v -4 h 1 v -4 h 1 v -4 h 1 v -3 h 1 v -4 h 1 v -4 h 1 v -4 h 1 v -4 h 1 v -3 h 1 v -4 h 1 v -4 h 1 v -4 h 1 v -4 h 1 v -3 h 1 v -4 h 1 v -4 h 1 v -4 h 1 v -4 h 1 v -3 h 1 v -4 h 1 v -4 h 1 v -4 h 1 v -4 h 1 v -3 h 1 v -4 h 1 v -4 h 1 v -4 h 1 v -4 h 1 v -3 h 1 v -4 h 1 v -4 h 1 v -4 h 1 v -4 h 1 v -3 h 1 v -4 h 1 v -4 h 1 v -4 h 1 v -4 h 1 v -3 h 1 v -4 h 1 v -4 h 1 v -4 h 1 v -3 h 1 v -4 h 1 v -4 h 1 v -4 h 1 v -4 h 1 v -3 h 1 v -4 h 1 v -4 h 1 v -4 h 1 v -4 h 1 v -3 h 1 v -4 h 1 v -4 h 1 v -4 h 1 v -4 h 1 v -3 h 1 v -4 h 1 v -4 h 1 v -4 h 1 v -4 h 1 v -3 h 1 v -4 h 1 v -4 h 1 v -4 h 1 v -4 h 1 v -3 h 1 v -4 h 1 v -4 h 1 v -4 h 1 v -4 h 1 v -3 h 1 v -4 h 1 v -4 h 1 v -4 h 1 v -4 h 1 v -3 h 1 v -4 h 1 v -4 h 1 v -4 h 1 v -4 h 1 v -3 h 1 v -4 h 1 v -4 h 1 v -4 h 1 v -3 h 1 v -4 h 1 v -4 h 1 v -4 h 1 v -4 h 1 v -3 h 1 v -4 h 1 v -4 h 1 v -4 h 1 v -4 h 1 v -3 h 1 v -5 h 1 v -6 h 1 v -6 h 1 v -33 h -1 v -5 h -1 v -5 h -1 v -5 h -1 v -3 h -1 v -2 h -1 v -2 h -1 v -3 h -1 v -2 h -1 v -2 h -1 v -3 h -1 v -1 h -1 v -2 h -1 v -2 h -1 v -1 h -1 v -1 h -1 v -1 h -1 v -2 h -1 v -1 h -1 v -1 h -1 v -2 h -1 v -1 h -1 v -1 h -1 v -1 h -1 v -1 h -1 v -1 h -1 v -1 h -1 v -1 h -2 v -1 h -1 v -1 h -1 v -1 h -1 v -1 h -1 v -1 h -1 v -1 h -2 v -1 h -1 v -1 h -2 v -1 h -3 v -1 h -2 v -1 h -2 v -1 h -2 v -1 h -2 v -1 h -3 v -1 h -4 v -1 h -4 v -1 h -4 v -1 h -8 v -1 h -11 v -1 h -12 v -1 h -11 v -1 h -12 v -1 h -12 v -1 h -11 v -1 h -12 v -1 h -11 v -1 h -12 v -1 h -12 v -1 h -11 v -1 h -12 v -1 h -11 v -1 h -12 v -1 h -11 v -1 h -12 v -1 h -12 v -1 h -11 v -1 h -12 v -1 h -11 v -1 h -12 v -1 h -12 v -1 h -11 v -1 h -12 v -1 h -11 v -1 h -12 v -1 h -12 v -1 h -11 v -1 h -12 v -1 h -11 v -1 h -12 v -1 h -12 v -1 h -11 v -1 h -12 v -1 h -11 v -1 h -12 v -1 h -11 v -1 h -12 v -1 h -12 v -1 h -11 v -1 h -12 v -1 h -11 v -1 h -12 v -1 h -12 v -1 h -11 v -1 h -12 v -1 h -11 v -1 h -12 v -1 h -12 v -1 h -11 v -1 h -12 v -1 h -11 v -1 h -12 v -1 h -11 v -1 h -2 v -1 h 1 v -4 h 1 v -4 h 1 v -4 h 1 v -4 h 1 v -4 h 1 v -5 h 1 v -4 h 1 v -4 h 1 v -4 h 1 v -4 h 1 v -4 h 1 v -4 h 1 v -4 h 1 v -4 h 1 v -4 h 1 v -4 h 1 v -4 h 1 v -4 h 1 v -4 h 1 v -4 h 1 v -5 h 1 v -4 h 1 v -4 h 1 v -4 h 1 v -4 h 1 v -4 h 1 v -4 h 1 v -4 h 1 v -4 h 1 v -4 h 1 v -4 h 1 v -4 h 1 v -4 h 1 v -4 h 1 v -5 h 1 v -4 h 1 v -4 h 1 v -4 h 1 v -4 h 1 v -4 h 1 v -4 h 1 v -4 h 1 v -4 h 1 v -4 h 1 v -4 h 1 v -4 h 1 v -4 h 1 v -4 h 1 v -5 h 1 v -4 h 1 v -4 h 1 v -4 h 1 v -4 h 1 v -4 h 1 v -4 h 1 v -4 h 1 v -4 h 1 v -4 h 1 v -4 h 1 v -4 h 1 v -4 h 1 v -4 h 1 v -4 h 1 v -5 h 1 v -4 h 1 v -4 h 1 v -4 h 1 v -4 h 1 v -4 h 1 v -4 h 1 v -4 h 1 v -4 h 1 v -4 h 1 v -4 h 1 v -4 h 1 v -4 h 1 v -4 h 1 v -5 h 1 v -4 h 1 v -4 h 1 v -4 h 1 v -4 h 1 v -4 h 1 v -4 h 1 v -4 h 1 v -4 h 1 v -4 h 1 v -4 h 1 v -4 h 1 v -4 h 1 v -4 h 1 v -5 h 1 v -4 h 1 v -4 h 1 v -4 h 1 v -4 h 1 v -4 h 1 v -4 h 1 v -4 h 1 v -4 h 1 v -4 h 1 v -4 h 1 v -4 h 1 v -4 h 1 v -4 h 1 v -5 h 1 v -4 h 1 v -4 h 1 v -4 h 1 v -4 h 1 v -4 h 1 v -4 h 1 v -4 h 1 v -4 h 1 v -4 h 1 v -4 h 1 v -4 h 1 v -4 h 1 v -4 h 1 v -4 h 1 v -5 h 1 v -4 h 1 v -4 h 1 v -4 h 1 v -4 h 1 v -4 h 1 v -4 h 1 v -4 h 1 v -4 h 1 v -4 h 1 v -4 h 1 v -4 h 1 v -4 h 1 v -4 h 1 v -5 h 1 v -4 h 1 v -4 h 1 v -4 h 1 v -4 h 1 v -4 h 1 v -4 h 1 v -4 h 1 v -4 h 1 v -4 h 1 v -4 h 1 v -4 h 1 v -4 h 1 v -4 h 1 v -5 h 1 v -4 h 1 v -4 h 1 v -4 h 1 v -4 h 1 v -4 h 1 v -4 h 1 v -4 h 1 v -4 h 1 v -4 h 1 v -4 h 1 v -4 h 1 v -4 h 1 v -4 h 1 v -4 h 1 v -5 h 1 v -4 h 1 v -4 h 1 v -4 h 1 v -4 h 1 v -4 h 1 v -4 h 1 v -4 h 1 v -4 h 1 v -4 h 1 v -4 h 1 v -4 h 1 v -4 h 1 v -4 h 1 v -5 h 1 v -4 h 1 v -4 h 1 v -4 h 1 v -4 h 1 v -7 h 1 v -7 h 1 v -35 h -1 v -4 h -1 v -4 h -1 v -5 h -1 v -4 h -1 v -3 h -1 v -2 h -1 v -3 h -1 v -2 h -1 v -3 h -1 v -2 h -1 v -3 h -1 v -1 h -1 v -2 h -1 v -2 h -1 v -1 h -1 v -2 h -1 v -1 h -1 v -1 h -1 v -2 h -1 v -1 h -1 v -2 h -1 v -1 h -1 v -1 h -1 v -2 h -1 v -1 h -1 v -1 h -1 v -1 h -1 v -1 h -1 v -1 h -1 v -1 h -1 v -1 h -1 v -1 h -2 v -1 h -1 v -1 h -1 v -1 h -1 v -1 h -2 v -1 h -1 v -1 h -1 v -1 h -2 v -1 h -2 v -1 h -2 v -1 h -2 v -1 h -2 v -1 h -1 v -1 h -2 v -1 h -2 v -1 h -3 v -1 h -3 v -1 h -4 v -1 h -4 v -1 h -4 v -1 h -4 v -1 h -8 v -1 h -8 v -1 h -7 v -1 h -8 v -1 h -8 v -1 h -8 v -1 h -8 v -1 h -7 v -1 h -8 v -1 h -8 v -1 h -8 v -1 h -7 v -1 h -8 v -1 h -8 v -1 h -8 v -1 h -7 v -1 h -8 v -1 h -8 v -1 h -8 v -1 h -7 v -1 h -8 v -1 h -8 v -1 h -8 v -1 h -7 v -1 h -8 v -1 h -8 v -1 h -8 v -1 h -7 v -1 h -8 v -1 h -8 v -1 h -8 v -1 h -7 v -1 h -8 v -1 h -8 v -1 h -8 v -1 h -7 v -1 h -8 v -1 h -8 v -1 h -8 v -1 h -7 v -1 h -8 v -1 h -8 v -1 h -8 v -1 h -7 v -1 h -8 v -1 h -8 v -1 h -8 v -1 h -7 v -1 h -8 v -1 h -8 v -1 h -8 v -1 h -7 v -1 h -8 v -1 h -8 v -1 h -8 v -1 h -7 v -1 h -8 v -1 h -8 v -1 h -8 v -1 h -7 v -1 h -8 v -1 h -8 v -1 h -8 v -1 h -7 v -1 h -8 v -1 h -8 v -1 h -8 v -1 h -7 v -1 h -8 v -1 h -8 v -1 h -8 v -1 h -7 v -1 h -8 v -1 h -8 v -1 h -8 v -1 h -7 v -1 h -8 v -1 h -8 v -1 h -8 v -1 h -7 v -1 h -8 v -1 h -8 v -1 h -8 v -1 h -7 v -1 h -12 v -1" /></g></g></g><path
         id="path118"
         style="fill:#cc6b1b;fill-opacity:1;fill-rule:nonzero;stroke:none"
         d="m 980.656,1745.92 70.264,-358.58 -343.459,-28.63 -70.223,365.77 z m 155.794,-423.21 -97.67,498.49 -487.089,-30.42 97.668,-508.69 487.091,40.62" /><path
         id="path120"
         style="fill:#cc6b1b;fill-opacity:1;fill-rule:nonzero;stroke:none"
         d="m 2583.48,1520.89 c -30.29,-33.63 -73.9,-52.16 -122.82,-52.16 -107.25,0 -207.4,90.78 -218.69,198.24 -5.2,49.6 8.81,95.65 39.45,129.68 30.28,33.64 73.89,52.16 122.81,52.16 107.25,0 207.4,-90.78 218.69,-198.23 5.21,-49.61 -8.81,-95.66 -39.44,-129.69 z m 109.95,137.09 c -15.17,144.32 -144.9,261.73 -289.2,261.73 -69.27,0 -131.6,-26.85 -175.51,-75.62 -44.27,-49.16 -64.6,-114.7 -57.26,-184.54 15.17,-144.31 144.91,-261.72 289.2,-261.72 69.27,0 131.61,26.86 175.51,75.63 44.27,49.16 64.6,114.69 57.26,184.52" /><path
         id="path122"
         style="fill:#cc6b1b;fill-opacity:1;fill-rule:nonzero;stroke:none"
         d="m 2100.18,503.969 44,58.703 -206.47,149.047 149.28,206.761 -58.69,43.989 L 1879.14,755.871 1649.53,928 l -44.01,-58.699 229.46,-172.012 -172,-229.449 58.69,-43.988 171.9,229.277 206.61,-149.16" /><path
         id="path124"
         style="fill:#cc6b1b;fill-opacity:1;fill-rule:nonzero;stroke:none"
         d="m 1681.91,2323.14 -355.38,-12.6 123.34,327.25 z m -247.74,446.93 -221.49,-535.94 576.08,33.16 -354.59,502.78" /></g></g></svg>